<svg width="182" height="44" viewBox="0 0 182 44" fill="none" xmlns="http://www.w3.org/2000/svg">
<path d="M53.2946 26.0678C53.2946 26.3685 53.0514 26.6124 52.7514 26.6124H42.4885C42.1885 26.6124 41.9453 26.3685 41.9453 26.0678V18.4066C41.9453 17.7873 41.2898 17.3891 40.7423 17.6757L37.499 19.3734C37.2275 19.5156 37.0572 19.7973 37.0573 20.1044L37.0589 30.3588C37.059 30.6285 36.9094 30.8759 36.6709 31.0008L28.9445 35.0438C28.3488 35.3555 28.2223 36.1553 28.6925 36.6364L30.8841 38.8791C31.1923 39.1945 31.6701 39.271 32.061 39.0674L37.1451 36.4198C40.1142 34.8577 41.9577 31.66 41.9453 28.4436V28.3045C41.9503 28.3647 41.9495 28.4268 41.9579 28.4859V28.4928C42.1785 30.2039 43.6371 31.5244 45.4024 31.5244H51.6499C55.2641 31.5244 58.194 28.587 58.194 24.9635V9.90291C58.194 9.28386 57.5389 8.88562 56.9914 9.17185L53.7367 10.8734C53.465 11.0155 53.2946 11.2972 53.2946 11.6045L53.2946 26.0678Z" fill="#242424"/>
<path d="M82.9282 35.5243L80.6214 37.8763C80.3192 38.1844 80.3233 38.6798 80.6307 38.9827L82.9766 41.2954C83.2839 41.5984 83.778 41.5942 84.0802 41.2861L86.387 38.9341C86.6892 38.626 86.6851 38.1307 86.3778 37.8277L84.0318 35.515C83.7245 35.2121 83.2304 35.2162 82.9282 35.5243Z" fill="#1EB35B"/>
<path d="M90.5852 26.4511C90.5027 26.4511 90.4432 26.374 90.4623 26.2935C90.5763 25.8113 90.6422 25.3106 90.6422 24.7934V21.3791C90.6422 20.625 89.8441 20.1401 89.1774 20.4891L86.2796 22.0058C85.9489 22.1788 85.7416 22.5218 85.7416 22.8957V24.7087C85.7416 24.7612 85.7399 24.8121 85.7349 24.8629V25.7144C85.7349 26.1143 85.4116 26.4384 85.0127 26.4384H75.1248C74.726 26.4384 74.4026 26.1143 74.4026 25.7144V18.6714C74.4026 17.9173 73.6045 17.4324 72.9377 17.7814L70.0402 19.298C69.7095 19.471 69.5022 19.8141 69.5022 20.1881L69.5038 30.3349C69.5038 30.6046 69.3543 30.852 69.1158 30.9768L61.4132 35.0074C60.8105 35.3227 60.6897 36.1356 61.1745 36.6134L63.3294 38.7371C63.6386 39.0418 64.1082 39.1124 64.493 38.912L69.59 36.2578C72.5591 34.6957 74.4026 31.6361 74.4026 28.2749V28.2747C74.6029 30.0066 76.0689 31.3515 77.8516 31.3515H84.1007C86.7852 31.3515 89.0912 29.7304 90.0993 27.4115C90.1547 27.2841 90.3429 27.3222 90.3429 27.4611V27.6988C90.3429 29.7088 91.9682 31.3383 93.9731 31.3383H120.975C121.528 31.3383 121.976 30.8888 121.976 30.3343V27.4551C121.976 26.9006 121.528 26.4511 120.975 26.4511H90.5852Z" fill="#1EB35B"/>
<path d="M71.7437 8.87508L69.1887 11.4801C68.955 11.7183 68.9582 12.1013 69.1958 12.3356L71.7943 14.8972C72.0319 15.1314 72.4139 15.1282 72.6475 14.89L75.2026 12.2849C75.4362 12.0467 75.433 11.6637 75.1954 11.4295L72.597 8.86789C72.3594 8.63365 71.9774 8.63687 71.7437 8.87508Z" fill="#1EB35B"/>
<path d="M30.6579 17.6553L27.4042 19.3616C27.1309 19.5049 26.9605 19.7895 26.963 20.0987L26.9971 24.4431C26.9987 24.6474 26.8861 24.8354 26.7054 24.93L18.6112 29.1688C16.0409 30.5139 13.159 30.5184 10.6745 29.0149C8.18096 27.5022 6.69031 24.8484 6.69031 21.9183C6.69031 17.385 10.3582 13.6668 14.8574 13.6306L17.2283 13.6341C17.6266 13.6347 17.9492 13.9584 17.9494 14.3577L17.9513 17.367L16.3675 18.8952C16.0631 19.189 16.0471 19.6723 16.3315 19.9855L18.3861 22.249C18.6819 22.5749 19.1876 22.5917 19.5043 22.2863L21.6986 20.1702C22.0031 19.8765 22.0192 19.3931 21.7348 19.0797L20.1074 17.2868L20.1166 9.69828C20.1172 9.14073 19.6646 8.68943 19.1085 8.69312L14.8303 8.72146C7.63884 8.77126 1.78906 14.6949 1.78906 21.9183C1.78906 26.5829 4.1606 30.8083 8.14029 33.2176C10.2407 34.4902 12.5762 35.1287 14.9206 35.1287C17.0075 35.1287 18.9274 34.4856 20.8562 33.4712L31.5105 27.9054C31.7502 27.7802 31.9001 27.5312 31.899 27.2602L31.8614 18.3824C31.8588 17.7645 31.2041 17.3689 30.6579 17.6553Z" fill="#242424"/>
<path d="M138.261 26.3579C137.845 26.1919 137.392 26.5002 137.392 26.9491V34.101L137.391 34.2179C137.391 34.2433 137.391 34.2671 137.392 34.2908C137.414 34.6312 137.588 34.9429 137.864 35.136C137.887 35.153 137.911 35.1682 137.936 35.1835C138.187 35.3339 138.498 35.3424 138.757 35.2059L142.632 33.1608L147.674 30.5039C147.847 30.4131 147.833 30.1615 147.652 30.0896L138.261 26.3579Z" fill="#242424"/>
<path d="M180.295 32.9263L177.822 35.3108C177.575 35.5492 177.181 35.536 176.95 35.2818L174.635 32.7319C174.413 32.4874 174.426 32.1103 174.663 31.8811L176.387 30.2177L176.382 12.6257L178.574 11.4773L178.563 30.1368L180.323 32.0754C180.545 32.3199 180.533 32.6971 180.295 32.9263Z" fill="#1EB35B"/>
<path d="M178.575 13.7071L178.571 18.771L176.384 20.0385L176.383 14.8556L178.575 13.7071Z" fill="#1EB35B"/>
<path d="M178.575 11.4781L178.571 14.2256L176.384 16.7824L176.383 12.6266L178.575 11.4781Z" fill="#1EB35B"/>
<path d="M178.3 11.1198C178.653 11.2601 178.679 11.7516 178.342 11.928L156.417 23.4126L151.824 25.8197C151.775 25.844 151.725 25.8656 151.674 25.8833C151.637 25.8962 151.574 25.9109 151.535 25.9172C151.493 25.924 151.45 25.9292 151.406 25.9326C151.358 25.9343 151.309 25.9343 151.259 25.9309C151.167 25.9206 151.073 25.9001 150.985 25.8642L125.772 15.8527C125.769 15.8527 125.767 15.8527 125.764 15.8493C125.24 15.6424 125.201 14.9124 125.701 14.6508L125.731 14.6337H125.733L151.622 1.07477C151.818 0.972213 152.032 0.917498 152.248 0.910655C152.448 0.902134 152.649 0.936318 152.838 1.01153L178.3 11.1198Z" fill="#1EB35B"/>
<path d="M157.181 23.0125L156.419 23.4126L151.872 25.8026C151.802 25.8385 151.731 25.8676 151.656 25.8898C151.617 25.9001 151.577 25.9103 151.536 25.9172C151.494 25.924 151.451 25.9291 151.407 25.9326C151.359 25.9343 151.31 25.9343 151.26 25.9308C151.142 25.924 151.025 25.8967 150.914 25.8522L125.797 15.8647C125.789 15.8612 125.782 15.8578 125.773 15.8527C125.77 15.8527 125.768 15.8527 125.765 15.8493C125.26 15.6202 125.231 14.8987 125.733 14.6337H125.734L151.623 1.07477C151.819 0.972218 152.033 0.917503 152.249 0.91066L157.181 23.0125Z" fill="#1B9C50"/>
<path d="M170.322 22.7414V29.114C170.322 29.4816 170.141 29.8272 169.839 30.0355L151.667 42.6064C151.489 42.73 151.285 42.7978 151.079 42.8113C150.886 42.8249 150.692 42.791 150.513 42.7097C150.474 42.6911 150.435 42.6707 150.398 42.6487L141.365 37.2392C141.212 37.1477 141.218 36.9235 141.376 36.8408L151.413 31.5855L151.415 31.5838L152.539 30.996L169.394 22.1772C169.815 21.9553 170.322 22.262 170.322 22.7414Z" fill="#242424"/>
</svg>
