<svg width="57" height="42" viewBox="0 0 57 42" fill="none" xmlns="http://www.w3.org/2000/svg">
<path d="M13.8467 25.4486C13.4311 25.2826 12.9783 25.5909 12.9783 26.0398V33.1916L12.9766 33.3086C12.9766 33.334 12.9766 33.3577 12.9783 33.3814C13.0002 33.7219 13.1742 34.0335 13.4497 34.2267C13.4733 34.2436 13.497 34.2588 13.5223 34.2741C13.7731 34.4245 14.084 34.433 14.3426 34.2966L18.2178 32.2515L23.2602 29.5945C23.4325 29.5037 23.4191 29.2521 23.2381 29.1802L13.8467 25.4486Z" fill="#242424"/>
<path d="M55.8808 32.0169L53.4082 34.4015C53.1611 34.6398 52.7665 34.6267 52.5357 34.3724L50.2211 31.8225C49.9992 31.578 50.0116 31.2009 50.2492 30.9717L51.973 29.3084L51.9678 11.7163L54.1598 10.5679L54.1494 29.2274L55.909 31.1661C56.131 31.4106 56.1185 31.7877 55.8808 32.0169Z" fill="#1EB35B"/>
<path d="M54.1609 12.7977L54.1573 17.8616L51.9701 19.1291L51.9688 13.9462L54.1609 12.7977Z" fill="#1EB35B"/>
<path d="M54.1609 10.5687L54.1573 13.3162L51.9701 15.873L51.9688 11.7172L54.1609 10.5687Z" fill="#1EB35B"/>
<path d="M53.8856 10.2104C54.2389 10.3507 54.2645 10.8422 53.9277 11.0187L32.0034 22.5032L27.4094 24.9104C27.361 24.9346 27.3113 24.9562 27.2601 24.9739C27.2229 24.9868 27.16 25.0016 27.1211 25.0078C27.0785 25.0146 27.0359 25.0198 26.9917 25.0232C26.9439 25.0249 26.8945 25.0249 26.845 25.0215C26.753 25.0112 26.6591 24.9907 26.5705 24.9548L1.35828 14.9433C1.35487 14.9433 1.35317 14.9433 1.34975 14.9399C0.82627 14.7331 0.787056 14.003 1.28668 13.7415L1.31736 13.7244H1.31907L27.2082 0.165387C27.4043 0.0628351 27.6175 0.0081203 27.8341 0.00127672C28.0335 -0.00724388 28.2348 0.0269401 28.4241 0.102152L53.8856 10.2104Z" fill="#1EB35B"/>
<path d="M32.7667 22.1032L32.0045 22.5032L27.4583 24.8933C27.3884 24.9291 27.3167 24.9582 27.2417 24.9804C27.2025 24.9907 27.1633 25.0009 27.1224 25.0078C27.0797 25.0146 27.0371 25.0198 26.9928 25.0232C26.945 25.0249 26.8956 25.0249 26.8461 25.0215C26.7284 25.0146 26.6108 24.9873 26.4999 24.9428L1.38329 14.9553C1.37475 14.9519 1.36792 14.9484 1.35939 14.9433C1.35598 14.9433 1.35426 14.9433 1.35085 14.9399C0.846107 14.7108 0.817138 13.9893 1.31847 13.7243H1.32017L27.2093 0.165392C27.4054 0.0628401 27.6186 0.00812532 27.8351 0.00128174L32.7667 22.1032Z" fill="#1B9C50"/>
<path d="M45.9079 21.832V28.2046C45.9079 28.5722 45.7272 28.9178 45.4247 29.1261L27.2526 41.697C27.0752 41.8207 26.8708 41.8884 26.6647 41.902C26.472 41.9155 26.2777 41.8816 26.0986 41.8003C26.0598 41.7817 26.0209 41.7614 25.9837 41.7394L16.9508 36.3298C16.7979 36.2383 16.8043 36.0141 16.9622 35.9315L26.9992 30.6761L27.0009 30.6744L28.1245 30.0866L44.9803 21.2679C45.401 21.0459 45.9079 21.3526 45.9079 21.832Z" fill="#242424"/>
</svg>
